<?xml version="1.0" encoding="utf-8"?>
<!-- Generator: Adobe Illustrator 23.0.5, SVG Export Plug-In . SVG Version: 6.00 Build 0)  -->
<svg version="1.1" id="Capa_1" xmlns="http://www.w3.org/2000/svg" xmlns:xlink="http://www.w3.org/1999/xlink" x="0px" y="0px"
	 viewBox="0 0 1200 1200" style="enable-background:new 0 0 1200 1200;" xml:space="preserve">
<style type="text/css">
	.st0{fill:#FFD900;}
	.st1{fill:#4D4D4D;}
	.st2{fill:#FFFFFF;}
	.st3{fill:#B3B3B3;}
</style>
<g>
	<path class="st0" d="M599.26,169c-138.49,0-250.75,111.88-250.75,249.91c0,177.44,252,501.07,252,501.07
		s250.75-323.63,249.49-501.07C849.03,280.9,737.75,169,599.26,169z M599.89,771.91c-69.93,0-126.63-282.67-126.63-352.37
		s56.69-126.2,126.63-126.2s126.63,56.5,126.63,126.2S669.82,771.91,599.89,771.91z"/>
	<g>
		<path class="st1" d="M672,347.69H528.05c-7.24,0-13.16,5.9-13.16,13.12v144.32c0,7.22,5.92,13.12,13.16,13.12h8.78
			c0-18.12,28.49-32.8,63.63-32.8s63.63,14.69,63.63,32.8H672c7.24,0,13.16-5.9,13.16-13.12V360.81
			C685.17,353.59,679.24,347.69,672,347.69z"/>
		<path class="st2" d="M682.57,393.61H517.25c-1.3,0-2.36-1.06-2.36-2.36v-5.12c0-1.3,1.06-2.36,2.36-2.36h165.32
			c1.3,0,2.36,1.06,2.36,2.36v5.12C684.93,392.54,683.86,393.61,682.57,393.61z"/>
		<path class="st2" d="M682.57,415.47H517.25c-1.3,0-2.36-1.06-2.36-2.36v-5.12c0-1.3,1.06-2.36,2.36-2.36h165.32
			c1.3,0,2.36,1.06,2.36,2.36v5.12C684.93,414.41,683.86,415.47,682.57,415.47z"/>
		<ellipse class="st2" cx="599.36" cy="458.58" rx="15.36" ry="15.31"/>
		<path class="st1" d="M608.7,629.46h-15.66c-3.97,0-7.22-3.25-7.22-7.22v-91.33c0-3.97,3.25-7.22,7.22-7.22h15.66
			c3.97,0,7.22,3.25,7.22,7.22v91.33C615.92,626.21,612.67,629.46,608.7,629.46z"/>
		<ellipse class="st1" cx="600.52" cy="673.82" rx="16.93" ry="16.87"/>
	</g>
	<ellipse class="st3" cx="601.14" cy="994.95" rx="250.75" ry="36.86"/>
</g>
</svg>
