<?xml version="1.0" encoding="utf-8"?>
<!-- Generator: Adobe Illustrator 23.0.5, SVG Export Plug-In . SVG Version: 6.00 Build 0)  -->
<svg version="1.1" id="Capa_1" xmlns="http://www.w3.org/2000/svg" xmlns:xlink="http://www.w3.org/1999/xlink" x="0px" y="0px"
	 viewBox="0 0 1200 1200" style="enable-background:new 0 0 1200 1200;" xml:space="preserve">
<style type="text/css">
	.st0{fill:#FFD900;}
	.st1{fill:#F2F2F2;}
	.st2{fill:#B3B3B3;}
</style>
<path class="st0" d="M599.2,140c-147.8,0-267.6,119.41-267.6,266.71c0,189.36,268.94,534.75,268.94,534.75
	s267.6-345.39,266.27-534.75C865.76,259.42,747,140,599.2,140z M599.87,783.43c-74.63,0-135.14-301.67-135.14-376.06
	c0-74.39,60.51-134.69,135.14-134.69s135.14,60.3,135.14,134.69C735.01,481.76,674.5,783.43,599.87,783.43z"/>
<path class="st1" d="M676.83,330.7H523.2c-7.73,0-14.05,6.3-14.05,14v154.02c0,7.7,6.32,14,14.05,14h9.37
	c0-19.33,30.4-35.01,67.9-35.01s67.9,15.67,67.9,35.01h8.45c7.73,0,14.05-6.3,14.05-14V344.7C690.88,337,684.56,330.7,676.83,330.7z
	"/>
<path d="M688.26,379.7H511.51c-1.3,0-2.36-1.06-2.36-2.36v-5.78c0-1.3,1.06-2.36,2.36-2.36h176.75c1.3,0,2.36,1.06,2.36,2.36v5.78
	C690.62,378.64,689.56,379.7,688.26,379.7z"/>
<path d="M688.26,403.04H511.51c-1.3,0-2.36-1.06-2.36-2.36v-5.78c0-1.3,1.06-2.36,2.36-2.36h176.75c1.3,0,2.36,1.06,2.36,2.36v5.78
	C690.62,401.98,689.56,403.04,688.26,403.04z"/>
<ellipse cx="599.3" cy="449.05" rx="16.39" ry="16.34"/>
<path class="st1" d="M609.76,631.41h-17.68c-3.97,0-7.22-3.25-7.22-7.22v-98.44c0-3.97,3.25-7.22,7.22-7.22h17.68
	c3.97,0,7.22,3.25,7.22,7.22v98.44C616.97,628.16,613.73,631.41,609.76,631.41z"/>
<ellipse class="st1" cx="600.54" cy="678.75" rx="18.06" ry="18"/>
<ellipse class="st2" cx="601.21" cy="1021.47" rx="267.6" ry="39.34"/>
</svg>
